<?xml version="1.0" encoding="utf-8"?>
<!-- Generator: Adobe Illustrator 21.0.0, SVG Export Plug-In . SVG Version: 6.00 Build 0)  -->
<svg version="1.1" id="Capa_1" xmlns="http://www.w3.org/2000/svg" xmlns:xlink="http://www.w3.org/1999/xlink" x="0px" y="0px"
	 viewBox="0 0 500.7 496.7" style="enable-background:new 0 0 500.7 496.7;" xml:space="preserve">
<style type="text/css">
	.st0{clip-path:url(#SVGID_2_);}
	.st1{fill:#FFFFFF;}
	.st2{fill:#FA8072;}
	.st3{fill:none;stroke:#FA8072;stroke-width:18;stroke-miterlimit:10;}
</style>
<g>
	<g>
		<defs>
			<circle id="SVGID_1_" cx="250.3" cy="248.3" r="223.5"/>
		</defs>
		<clipPath id="SVGID_2_">
			<use xlink:href="#SVGID_1_"  style="overflow:visible;"/>
		</clipPath>
		<g class="st0">
			<path class="st1" d="M176,123.7c-1.2-1.8-3.3-2.5-6-0.9c-3.9,2.3-8.2,14.8-6.4,18.8c0.4,0.9,1.6,1.8,2.6,2
				c0.6,0.1,1.9-0.8,2.2-1.5C170.9,136.3,173.2,130.4,176,123.7z M204.9,116.1c-1.9,1.4-3.3,2-3.9,3c-0.4,0.8-0.2,2.8,0.3,3.1
				c3,1.6,6.2,3,9.5,4c0.4,0.1,2.3-2.7,2.1-2.8C210.4,121,207.8,118.7,204.9,116.1z"/>
			<path class="st2" d="M232.2,374c-4.4,3-8.7,6.1-13.2,9c-7,4.4-14.3,8.5-22.8,8.8c-6.2,0.2-12.5,0.2-17.8-4.5
				c-2.7-2.3-6.4-3.5-9.5-5.3c-3.4-1.9-6.3-4.3-7-8.5c-0.8-4.9,1.3-8.3,6.2-9.6c3-0.8,6-1.6,8.9-2.7c3.1-1.2,5.9-2.2,9.3-0.5
				c1.3,0.6,3.6,0.2,5-0.5c2.9-1.4,5.5-3.3,8.1-5.3c0.9-0.7,1.8-2,1.8-3c0-0.7-1.3-1.9-2.3-2.1c-10.8-3.3-21.9-5.7-32.5-9.7
				c-15.8-5.9-31.3-12.6-44.6-23.4c-2.8-2.3-5.2-5.2-7.7-7.9c-3-3.2-2.8-6.5,0.2-9.4c7.2-7,14.2-14.2,21.8-20.7
				c17.1-14.8,34.4-29.4,52-43.7c3.5-2.8,8.3-4.2,12.6-5.7c3.8-1.3,5-2.6,2.8-5.8c-5.4-7.8-10.9-15.7-16.8-23.2
				c-1.4-1.7-4.5-3-6.8-3c-5,0-10,0.7-14.9,1.7c-7.6,1.4-15,0.5-22.3-1.8c-5.7-1.8-8.6-7.4-7.7-14.3c0.4-3.3-0.3-5.5-4-6.1
				c-5.6-0.9-10.9-3-13-8.5c-2.3-6.1,1-11.4,4.8-16.2c4.4-5.6,9.8-9.1,17.4-8.6c3,0.2,6.1-0.7,9.1-0.4c2.9,0.3,4.7,2.3,4.8,5.4
				c0.1,1.8,0.3,3.5,0.6,5.3c0.5,2.8,2,3.9,4.7,2.6c3.3-1.5,6.9-2.8,9.9-4.8c1.7-1.2,3.1-3.5,3.8-5.6c3.5-11.2,6.6-13.9,18.3-14.5
				c1.3-0.1,2.7-0.3,3.8-0.8c7.2-3.2,14.3-3.6,20.5,1.9c2.7,2.4,5.1,2.1,8.1,1.4c7.6-1.8,15.1-3.6,22.7-5.2
				c7.8-1.7,15.5-3.3,23.3-4.8c13.2-2.6,15.8-1.7,15.1,11.4c-0.5,9.1-1.9,18.1-3.2,27.1c-0.3,2.4-1.5,4.9-2.9,6.8
				c-5.8,8-7.5,17.7-10.7,26.7c-3.7,10.5-19.1,10.4-24.1,3c-5-7.4-11.6-8.1-19.1-7.8c-5,0.2-10,0.3-15,0.4c-3.1,0.1-4.3,1.4-3.4,4.6
				c3.5,11.5,9.2,21.9,16.9,31.1c1.2,1.5,3.8,2.6,5.7,2.5c9.3-0.3,17.9,3.2,26.8,4.8c11.9,2.1,23.8,4.2,35.8,5.3
				c8.3,0.8,16.7,0.1,25.1-0.1c3.1-0.1,5.2-1.8,6.9-4.7c5.3-9.2,9.4-18.9,11.7-29.3c2.5-11.2,4.6-22.4,7.2-33.6
				c1.2-5.5,0.5-10.3-2.4-15.2c-3.2-5.5-2.9-8.5,1.5-12.6c2.8-2.6,2.5-5.2,1.3-7.9c-1.2-2.7-2.9-5.1-4.3-7.6
				c-1.5-2.8-3.2-6.1-0.6-8.6c2-1.9,5.4-3.7,7.9-3.4c2.5,0.3,5.6,2.8,6.8,5.1c1.8,3.5,2.4,7.8,3.2,11.8c0.5,2.6,1.5,3.9,4.3,3.9
				c7.5,0.2,14.5-1.1,20.8-5.8c6.3-4.7,13-9.1,19.6-13.4c6.2-4.1,13.6-2.6,16.3,3c1.5,3,1,5.5-1.7,7.3c-4.2,2.9-8.7,5.5-12.8,8.6
				c-1.2,0.9-1.9,3.1-1.9,4.6c0.1,4.6,1.3,9,2.7,13.5c3.8,12.4-2.8,23.7-18.2,23.1c-8.8-0.4-17.5-3.4-26.2-5.5c-4.2-1-5-0.6-5.9,3.7
				c-3.6,16.9-7.2,33.9-11.2,50.7c-1.6,7-4.2,13.7-6.4,20.6c-1.2,3.8-3.6,6.1-7.6,6.1c-15.2,0.2-30.4,0.5-45.5,0.6
				c-7.7,0.1-15.3-0.3-23-0.3c-4.7,0-6,2.4-3.6,6.4c8.6,14.6,15.5,29.9,20.5,46.1c3.5,11.3,7.8,22.5,10.4,34.1
				c3.6,16.1,7.7,32.2,6.6,48.9c-1,16.3-5.9,31.4-15.5,44.8c-0.7,0.9-1.3,2.1-1.4,3.2c-1.2,8.4-2.2,16.9-3.5,25.4
				c-1.3,8.4-2.9,16.8-4.5,25.2c-1.3,6.9-2.7,13.9-4.2,20.8c-2.6,11.6-5.4,23.1-8.2,34.7c-0.8,3.4-2.2,6.7-3,10.1
				c-1.8,7.7-7.5,11.7-13.9,15c-3.8,2-6,4.6-6.4,8.8c-0.5,5.7-1.2,11.5-1.3,17.2c-0.1,21.8-0.6,43.7,0.3,65.5
				c0.5,13.8,3.2,27.5,4.9,41.2c0.4,3.5,2.3,4.8,5.7,4.3c5.8-0.8,11.7-1.6,17.6-2c4.5-0.3,9.1-0.4,13.6,0.2
				c9.3,1.2,18.7,2.4,27.8,4.7c9.6,2.3,18.9,5.7,26.2,12.8c1.6,1.6,3.5,4.7,2.9,6.1c-1.1,2.5-1.8,6.2-6.1,6.6
				c-2.5,0.2-4.9,2.3-7.3,3.5c-0.6,0.3-1.3,0.7-2,0.8c-14.6,1.7-29.2,3.9-43.9,4.8c-13.4,0.8-26.9,0.5-40.3,0.2
				c-4.1-0.1-8.1-1.4-12.1-2.4c-3.5-0.9-3.6-4-3.6-6.8c-0.1-20.4-0.3-40.7-0.1-61.1c0.2-18.9,0.8-37.8,1.6-56.6
				c0.4-10,1.6-20,2.3-30c0.1-1.7-0.3-3.4-0.5-6c-2.2,1.2-3.8,1.8-5.1,2.8c-18.5,13.8-37,27.6-55.4,41.4c-3.1,2.3-4.2,5.2-4.1,9.1
				c0.2,15.9,0.7,31.9-0.3,47.8c-0.9,13.4-3.6,26.8-5.9,40.1c-0.5,2.7-2.4,5.4-4,7.8c-2.7,3.9-8.5,3.1-11-1c-1.3-2-3.3-3.6-5-5.4
				c-0.6-0.6-1.5-1.1-1.8-1.8c-2.8-6.7-5.5-13.5-8.3-20.2c-5.1-12-6.3-24.7-6.5-37.5c-0.2-14.6,2.2-28.8,7.5-42.3
				c2.3-5.9,6.2-10.3,13.3-11.4c13.7-2.1,25.7-8.6,37-16.4c10.7-7.4,21.9-14.3,32.7-21.7c5.8-4,11.5-8.1,16.9-12.7
				c1.9-1.6,3.4-4.6,3.6-7.1c2.6-26.3,4.9-52.6,7.2-78.8c1-11.1-0.2-22.1-3.4-32.8c-0.2-0.8-0.4-1.7-0.6-2.6
				c-1.7-9.5-2.7-10.4-12.3-8.4c-9.8,2-18.4,6.8-26.4,12.7c-18.5,13.5-30.9,31.9-42.2,51.4c-10.4,17.8-18.3,36.7-25.4,56
				c-5,13.8-8.6,28-13.2,42c-4.5,14-9.4,27.8-14.1,41.7C86,650.2,78.4,665.9,68,680c-6.3,8.5-14,15.6-24.1,19.2
				c-6.8,2.4-13.5,1.7-19-3.3c-1.4-1.2-2.3-5.1-1.5-6.1c1.6-2,5.3-4.5,7-3.9c11.6,4.3,18.2-3.2,24.4-10.2
				c9.7-11,16.6-23.8,21.6-37.5c5.8-15.8,11.4-31.8,16.7-47.8c2.8-8.3,4.5-17.1,7.1-25.4c3-9.2,6.3-18.3,9.8-27.3
				c3.5-8.9,6.7-17.9,11.1-26.3c7.8-14.8,16-29.3,24.8-43.5c8.1-12.9,18.6-23.9,30.6-33.3c7.9-6.2,16.3-11.5,26.1-14.1
				c4.5-1.2,9.1-2.1,13.7-2.8c3.5-0.6,5.5-2.4,5.3-5.9c-0.6-10.5,3.4-19.5,8.3-28.3c1.4-2.6,2.1-5.6,3.2-8.4
				C232.8,374.5,232.5,374.3,232.2,374z M236.7,338.4c-1.1-6.5-1.7-14.6-3.8-22.2c-3.1-11.4-7-22.7-11.1-33.8
				c-2.8-7.5-6.4-14.8-10.1-21.9c-2.3-4.4-4.5-4.7-8.8-2.4c-12,6.6-24.4,12.8-36,20.1c-9.4,5.9-17.9,13.2-26.8,19.8
				c-2.6,2-2.4,4.3-0.1,6.3c2.5,2.3,5.1,4.5,7.8,6.4c12,8.4,24.8,15.4,38.3,21.3c14.6,6.3,29.5,10.5,45.2,12.5
				C235.7,345.2,236.8,344.1,236.7,338.4z"/>
			<path class="st2" d="M176,123.7c-2.7,6.7-5.1,12.6-7.6,18.5c-0.3,0.7-1.6,1.6-2.2,1.5c-1-0.2-2.2-1.1-2.6-2
				c-1.8-4,2.6-16.5,6.4-18.8C172.7,121.3,174.7,121.9,176,123.7z"/>
			<path class="st2" d="M204.9,116.1c2.9,2.6,5.6,4.9,8,7.4c0.1,0.1-1.7,2.9-2.1,2.8c-3.3-1.1-6.4-2.4-9.5-4
				c-0.6-0.3-0.8-2.4-0.3-3.1C201.6,118.1,203,117.5,204.9,116.1z"/>
		</g>
	</g>
	<circle class="st3" cx="250.3" cy="248.3" r="223.5"/>
</g>
</svg>
